<svg width="800" height="200" viewBox="0 0 800 200" xmlns="http://www.w3.org/2000/svg">
  <!-- App icon on left -->
  <circle cx="100" cy="100" r="90" fill="#10b981"/>
  
  <!-- Fuel pump icon -->
  <g transform="translate(100, 100)">
    <rect x="-28" y="-38" width="42" height="65" rx="5" fill="#ffffff"/>
    <rect x="-23" y="-30" width="32" height="23" rx="3" fill="#065f46"/>
    <path d="M -7 -23 Q -7 -28 -2 -28 Q 3 -28 3 -23 Q 3 -13 -2 -8 Q -7 -13 -7 -23 Z" fill="#10b981"/>
    <rect x="14" y="-23" width="16" height="33" rx="4" fill="#ffffff"/>
    <path d="M 30 -8 L 45 -15 L 45 5 L 30 12 Z" fill="#fbbf24"/>
    <rect x="-33" y="27" width="52" height="9" rx="3" fill="#ffffff"/>
    <rect x="-23" y="5" width="32" height="13" rx="2" fill="#34d399"/>
  </g>
  
  <!-- App name -->
  <text x="220" y="130" font-family="Arial, sans-serif" font-size="80" font-weight="bold" fill="#10b981">MafutaPass</text>
  
  <!-- Tagline -->
  <text x="220" y="165" font-family="Arial, sans-serif" font-size="24" fill="#6b7280">Your Fuel Management Platform</text>
</svg>